<svg width="21" height="21" viewBox="0 0 21 21" fill="none" xmlns="http://www.w3.org/2000/svg">
<path d="M2.23864 20.9274V9.45783H0.875L10.875 0.927368L16.9356 6.11257V2.86285H18.4508V7.37898L20.875 9.45783H19.5114V20.9274H12.9205V13.7589H8.82955V20.9274H2.23864ZM3.14773 20.0672H7.92045V12.8987H13.8295V20.0672H18.6023V8.6693L10.875 2.07432L3.14773 8.6693V20.0672ZM8.19822 8.38257H13.577C13.577 7.72147 13.3034 7.18184 12.7563 6.76368C12.2092 6.34552 11.5821 6.13644 10.875 6.13644C10.1679 6.13644 9.54504 6.3432 9.00633 6.75672C8.46759 7.17025 8.19822 7.7122 8.19822 8.38257Z" fill="#EA3637"/>
</svg>
